PathFileType	4	(X/Y/Z)	static_1_OpenSim.trc.	Data\Walking\Mocap\Sub011\Generated_files\Files_W_HJCs																																																																																																																																																															
DataRate	CameraRate	NumFrames	NumMarkers	Units	OrigDataRate	OrigDataStartFrame	OrigNumFrames																																																																																																																																																												
100	100	4	54	mm	100	307	491																																																																																																																																																												
Frame#	Time	R.ASIS			R.PSIS			S2			L.PSIS			L.ASIS			R.TH1			R.TH2			R.TH3			R.Knee			R.SH1			R.SH2			R.SH3			R.SH4			R.Ankle			R.MAnkle			R.Heel			R.LatHeel			R.PT			R.MT5			R.Toe			R.MT1			R.ProxMet1			R.ST			R.MedHeel			L.TH1			L.TH2			L.TH3			L.TH4			L.Knee			L.SH1			L.SH2			L.SH3			L.Ankle			L.MAnkle			L.Heel			L.LatHeel			L.PT			L.MT5			L.Toe			L.MT1			L.ProxMet1			L.ST			L.MedHeel			T.Med			T.Lat			T.Bot			R.Acr			L.Acr			C7			Clav			R.MKnee			L.MKnee			R_HJC			L_HJC		
		X1	Y1	Z1	X2	Y2	Z2	X3	Y3	Z3	X4	Y4	Z4	X5	Y5	Z5	X6	Y6	Z6	X7	Y7	Z7	X8	Y8	Z8	X9	Y9	Z9	X10	Y10	Z10	X11	Y11	Z11	X12	Y12	Z12	X13	Y13	Z13	X14	Y14	Z14	X15	Y15	Z15	X16	Y16	Z16	X17	Y17	Z17	X18	Y18	Z18	X19	Y19	Z19	X20	Y20	Z20	X21	Y21	Z21	X22	Y22	Z22	X23	Y23	Z23	X24	Y24	Z24	X25	Y25	Z25	X26	Y26	Z26	X27	Y27	Z27	X28	Y28	Z28	X29	Y29	Z29	X30	Y30	Z30	X31	Y31	Z31	X32	Y32	Z32	X33	Y33	Z33	X34	Y34	Z34	X35	Y35	Z35	X36	Y36	Z36	X37	Y37	Z37	X38	Y38	Z38	X39	Y39	Z39	X40	Y40	Z40	X41	Y41	Z41	X42	Y42	Z42	X43	Y43	Z43	X44	Y44	Z44	X45	Y45	Z45	X46	Y46	Z46	X47	Y47	Z47	X48	Y48	Z48	X49	Y49	Z49	X50	Y50	Z50	X51	Y51	Z51	X52	Y52	Z52	X53	Y53	Z53	X54	Y54	Z54
																																																																																																																																																																			
307	3.06	1229.297	995.714	-427.751	1055.239	1008.825	-495.319	1055.246	990.902	-553.134	1061.46	1006.047	-604.1	1249.412	984.414	-655.847	1258.946	700.977	-413.804	1202.615	700.894	-353.023	1185.095	593.463	-372.179	1149.692	466.012	-386.486	1144.387	353.881	-379.446	1137.384	241.487	-386.427	1061.818	360.875	-376.882	1057.572	246.97	-375.589	1090.764	91.318	-406.887	1104.628	98.869	-480.854	1022.745	65.831	-450.705	1050.929	42.32	-406.978	1122.063	41.862	-389.885	1212.221	35.397	-378.802	1283.172	44.974	-432.192	1230.132	44.675	-474.486	1190.605	64.043	-472.594	1130.712	42.039	-488.191	1059.376	38.714	-485.672	1237.027	721.815	-722.41	1217.495	616.54	-703.557	1156.66	726.6	-753.782	1139.743	621.072	-726	1151.03	449.457	-696.474	1165.016	361.806	-694.535	1089.698	373.233	-727.145	1075.19	264.51	-723.595	1097.425	79.469	-690.403	1113.717	101.1	-612.56	1028.552	61.804	-649.6	1055.749	35.371	-691.254	1123.638	37.76	-704.84	1215.658	29.658	-716	1291.037	41.843	-657.825	1233.416	42.067	-618.544	1185.886	66.642	-618.773	1137.879	38.213	-606.32	1078.496	40.512	-610.813	1006.473	261.037	-488.909	1003.593	263.793	-451.786	1020.92	230.5	-461.509	1120.167	1393.781	-400.828	1157.441	1383.754	-734.919	1086.264	1422.45	-570.392	1214.857	1344.728	-557.547	1137.043	463.532	-504.83	1135.183	459.061	-593.714	1182.842	854.45	-447.996	1192.07	851.191	-636.26
308	3.07	1229.303	995.652	-427.742	1055.264	1008.806	-495.308	1055.265	990.904	-553.131	1061.486	1006.026	-604.086	1249.459	984.487	-655.742	1258.974	700.931	-413.786	1202.652	700.9	-353.019	1185.105	593.439	-372.167	1149.708	465.993	-386.541	1144.391	353.848	-379.438	1137.353	241.506	-386.37	1061.843	360.864	-376.851	1057.589	246.944	-375.562	1090.812	91.28	-406.9	1104.685	98.832	-480.806	1022.68	65.787	-450.538	1050.966	42.315	-406.995	1122.112	41.645	-389.939	1212.233	35.374	-378.79	1283.194	44.935	-432.27	1230.135	44.641	-474.483	1190.496	63.9	-472.622	1130.746	42.035	-488.198	1059.334	38.812	-485.605	1237.123	721.783	-722.407	1217.567	616.504	-703.564	1156.697	726.591	-753.826	1139.823	621.05	-725.999	1151.121	449.466	-696.475	1165.063	361.766	-694.522	1089.713	373.216	-727.104	1075.22	264.502	-723.607	1097.472	79.511	-690.399	1113.716	101.051	-612.56	1028.569	61.839	-649.615	1055.738	35.329	-691.277	1123.647	37.736	-704.851	1215.682	29.656	-716.054	1291.046	41.831	-657.797	1233.425	42.032	-618.541	1185.89	66.573	-618.812	1137.897	38.177	-606.352	1078.534	40.501	-610.805	1006.494	261.015	-488.91	1003.619	263.785	-451.769	1020.939	230.479	-461.504	1120.232	1393.749	-400.809	1157.605	1383.78	-734.869	1086.301	1422.448	-570.417	1214.909	1344.718	-557.512	1137.036	463.554	-504.776	1135.254	459.017	-593.669	1182.86	854.407	-448.019	1192.134	851.234	-636.282
309	3.08	1229.295	995.628	-427.727	1055.293	1008.79	-495.297	1055.305	990.89	-553.116	1061.513	1006.03	-604.08	1249.524	984.499	-655.687	1258.975	700.94	-413.793	1202.641	700.857	-353.002	1185.105	593.426	-372.166	1149.706	465.949	-386.491	1144.39	353.817	-379.43	1137.376	241.47	-386.402	1061.868	360.863	-376.842	1057.611	246.925	-375.534	1090.816	91.225	-406.93	1104.643	98.912	-480.894	1022.721	65.769	-450.664	1050.977	42.291	-406.978	1122.123	41.624	-389.941	1212.256	35.371	-378.781	1283.219	44.948	-432.256	1230.15	44.651	-474.485	1190.626	64.018	-472.567	1130.755	42.022	-488.196	1059.378	38.729	-485.605	1237.22	721.788	-722.407	1217.665	616.526	-703.494	1156.853	726.598	-753.761	1139.914	621.06	-725.999	1151.172	449.471	-696.45	1165.142	361.804	-694.503	1089.785	373.246	-727.116	1075.26	264.515	-723.576	1097.451	79.444	-690.388	1113.724	101.053	-612.527	1028.59	61.829	-649.548	1055.771	35.374	-691.316	1123.65	37.745	-704.838	1215.677	29.646	-715.993	1291.066	41.806	-657.798	1233.449	42.038	-618.532	1185.9	66.609	-618.829	1137.927	38.163	-606.331	1078.536	40.489	-610.797	1006.517	261.007	-488.892	1003.642	263.758	-451.746	1020.946	230.488	-461.477	1120.28	1393.702	-400.784	1157.668	1383.775	-734.835	1086.359	1422.469	-570.403	1214.983	1344.695	-557.466	1137	463.566	-504.791	1135.657	458.882	-593.677	1182.874	854.385	-448.011	1192.186	851.242	-636.273
310	3.09	1229.287	995.61	-427.703	1055.29	1008.789	-495.276	1055.32	990.874	-553.109	1061.517	1006.038	-604.103	1249.544	984.4	-655.726	1258.974	700.931	-413.732	1202.617	700.861	-352.993	1185.08	593.431	-372.136	1149.714	465.99	-386.471	1144.391	353.807	-379.433	1137.359	241.496	-386.373	1061.866	360.839	-376.853	1057.634	246.924	-375.558	1090.805	91.279	-406.871	1104.632	98.898	-480.862	1022.667	65.76	-450.573	1050.958	42.336	-406.949	1122.134	41.629	-389.945	1212.245	35.361	-378.785	1283.208	44.964	-432.23	1230.146	44.622	-474.494	1190.62	63.983	-472.587	1130.744	41.981	-488.191	1059.376	38.791	-485.646	1237.226	721.746	-722.371	1217.724	616.518	-703.478	1156.904	726.594	-753.764	1139.983	621.049	-725.944	1151.191	449.427	-696.491	1165.155	361.759	-694.51	1089.768	373.212	-727.118	1075.286	264.503	-723.556	1097.406	79.455	-690.467	1113.762	101.049	-612.497	1028.583	61.83	-649.557	1055.414	35.363	-691.566	1123.638	37.754	-704.852	1215.698	29.649	-715.999	1291.064	41.801	-657.826	1233.449	42.026	-618.527	1185.965	66.629	-618.801	1137.933	38.178	-606.336	1078.532	40.49	-610.807	1006.511	260.997	-488.842	1003.612	263.771	-451.74	1020.931	230.482	-461.482	1120.323	1393.699	-400.72	1157.725	1383.762	-734.793	1086.388	1422.397	-570.377	1215.028	1344.685	-557.441	1137.056	463.59	-504.824	1135.676	458.895	-593.673	1182.836	854.367	-447.979	1192.148	851.177	-636.24
